<?xml version="1.0" encoding="UTF-8"?>
<svg width="464px" height="613px" viewBox="0 0 464 613" version="1.1" xmlns="http://www.w3.org/2000/svg" xmlns:xlink="http://www.w3.org/1999/xlink">
    <title>undraw_reading_time_gvg0</title>
    <g id="Page-1" stroke="none" stroke-width="1" fill="none" fill-rule="evenodd">
        <g id="undraw_reading_time_gvg0" fill-rule="nonzero">
            <path d="M121.71605,182.58696 L121.71605,143.99996 L115.71605,143.99996 L115.71605,182.58696 C112.166392,184.022867 110.131935,187.772717 110.863357,191.531297 C111.594778,195.289876 114.886964,198.003158 118.71605,198.003158 C122.545136,198.003158 125.837322,195.289876 126.568743,191.531297 C127.300165,187.772717 125.265708,184.022867 121.71605,182.58696 Z" id="Path" fill="#E6E6E6"></path>
            <path d="M135.71605,571.99996 L94.71605,571.99996 L94.71605,73.99996 L78.71605,73.99996 L78.71605,571.99996 L37.71599,571.99996 C27.9029846,571.99996 18.4918944,575.898162 11.5530574,582.83701 C4.61422033,589.775858 0.71605,599.186955 0.71605,609.00002 L0.71605,609.00002 L172.71605,609.00002 L172.71605,609.00002 C172.71605,599.186945 168.817868,589.775841 161.879018,582.836992 C154.940169,575.898142 145.529065,571.999944 135.71605,571.99996 Z" id="Path" fill="#E6E6E6"></path>
            <path d="M0.79906,147.99996 L172.63306,147.99996 L162.12523,16.65967 C161.329055,7.27249339 153.500113,0.0449250791 144.07934,-4e-05 L29.35277,-4e-05 C19.9320094,0.0449228188 12.1030698,7.27246763 11.30687,16.65963 L0.79906,147.99996 Z" id="Path" fill-opacity="0.9" fill="#FFFFFF"></path>
            <path d="M240.05508,378.51971 L240.05508,378.51971 C236.790091,377.976707 233.443674,378.764815 230.764155,380.707798 C228.084636,382.650782 226.295542,385.586555 225.79695,388.85862 L220.95917,420.60723 L237.41944,424.97294 L249.48014,395.39223 C250.89972,391.910497 250.658628,387.972099 248.824963,384.689516 C246.991299,381.406933 243.764146,379.13656 240.05508,378.51971 Z" id="Path" fill="#A0616A"></path>
            <path d="M239.74734,420.54796 C248.8822,456.85016 244.95079,490.05396 210.93499,516.12436 C170.13555,504.87767 143.00019,477.74267 126.44399,438.30641 C124.363939,433.351494 124.400106,427.761577 126.544098,422.833991 C128.68809,417.906405 132.753485,414.069604 137.79677,412.21405 L137.79677,412.21405 C145.474756,409.390991 154.098518,411.613731 159.4553,417.79645 L199.48675,464.00011 L218.26645,417.41111 L239.74734,420.54796 Z" id="Path" fill="#169B62"></path>
            <path d="M448.78802,611.00689 C411.53472,609.02807 388.39266,596.23657 382.78802,570.00689 L388.78802,559.00689 L457.48257,590.30107 C461.029569,591.916928 463.249031,595.515439 463.100915,599.410341 C462.952799,603.305243 460.466454,606.724801 456.80698,608.06661 L448.78802,611.00689 Z" id="Path" fill="#E6E6E6"></path>
            <path d="M420.00272,611.26952 C400.64666,610.68331 382.0323,610.86552 364.39424,612.05915 C357.95534,612.499365 352.360839,607.676969 351.84695,601.24353 L350.78802,588.00689 L335.78802,564.00689 L348.78802,551.00689 C370.63502,572.76574 394.59463,591.04235 423.05114,601.90637 C424.929296,603.19322 425.73507,605.563668 425.030239,607.728539 C424.325408,609.89341 422.278495,611.335091 420.00272,611.26952 L420.00272,611.26952 Z" id="Path" fill="#E6E6E6"></path>
            <path d="M314.78802,517.00689 C290.07153,561.23296 265.76281,591.04705 233.78802,607.00689 C194.44891,619.99078 165.69766,602.78875 143.28802,567.50689 L208.28802,524.50689 L217.78802,534.00689 L303.88595,468.48864 C308.263088,464.344328 315.161147,464.497685 319.34978,468.83243 L392.78802,559.00689 L383.78802,574.00689 L314.78802,517.00689 Z" id="Path" fill="#2F2E41"></path>
            <polygon id="Path" fill="#2F2E41" points="336.788 569.007 302.788 517.007 310.788 502.007 355.788 549.007"></polygon>
            <circle id="Oval" fill="#A0616A" cx="140.78801" cy="369.00689" r="34"></circle>
            <path d="M149.78802,432.00689 L111.78802,419.00689 C117.411244,410.071354 119.875943,399.50836 118.78802,389.00689 L149.78802,389.00689 C148.02508,404.26464 147.76083,418.7365 149.78802,432.00689 Z" id="Path" fill="#A0616A"></path>
            <path d="M230.78802,523.00689 C225.09102,525.34589 224.67468,532.92962 219.28802,535.50689 C193.24851,547.96561 165.69902,558.07476 146.78802,576.00689 C102.59502,545.99676 61.63333,452.78939 114.78802,412.00689 C132.93182,422.62399 149.13888,430.22179 148.78802,412.00689 L230.78802,523.00689 Z" id="Path" fill="#169B62"></path>
            <path d="M207.78802,483.00689 L189.28802,476.50689 L152.78802,505.00689 L136.42602,446.10375 C135.29119,442.01836 133.45251,444.08917 130.81213,446.927 C125.192835,441.725861 117.065456,440.259458 109.982803,443.168815 C102.900151,446.078171 98.1503095,452.834179 97.80963,460.48351 C95.86328,503.20983 108.74786,539.35711 140.78802,567.00689 C182.69537,558.03399 200.48016,529.72051 207.78802,493.00689 L205.80702,491.68621 C206.536987,488.84899 207.19732,485.955883 207.78802,483.00689 Z" id="Path" fill="#000000" opacity="0.2"></path>
            <path d="M145.36306,324.28074 C156.57821,326.84303 169.34299,330.47353 170.05877,333.84795 C181.59551,336.75507 190.30332,343.71861 192.08135,354.33469 C192.382071,356.192139 191.844588,358.087386 190.613535,359.510431 C189.382481,360.933476 187.584322,361.738132 185.70293,361.70787 C179.42893,361.62706 170.01044,361.02616 163.79109,358.42854 C145.72429,370.0696 142.69172,400.3469 150.5817,420.95609 L138.16587,419.81802 L125.32092,382.21585 L122.04004,418.33996 L93.70726,414.59381 L97.35665,368.52913 C98.4782358,357.672076 102.173128,347.239096 108.13465,338.09613 C108.753793,337.177969 109.431141,336.300431 110.16253,335.46891 C118.944304,325.547787 132.464788,321.250423 145.36306,324.28074 Z" id="Path" fill="#2F2E41"></path>
            <polygon id="Path" fill="#3F3D56" points="209.285 438.428 240.402 475.011 287.078 419.925 255.54 381.659"></polygon>
            <path d="M279.0882,421.18674 L242.08387,390.91046 C244.1864,385.86446 254.27849,387.54646 254.27849,387.54646 L283.24488,416.9124 C284.253624,417.935054 285.118673,419.090085 285.81627,420.34577 L285.81627,420.34577 L279.0882,421.18674 Z" id="Path" fill="#F2F2F2"></path>
            <path d="M280.77022,419.08423 L238.71983,386.28496 L192.0439,456.92961 L235.98657,486.5751 C240.19163,488.2571 244.39665,485.31359 244.39665,485.31359 L287.28803,419.71496 L280.77022,419.08423 Z" id="Path" fill="#3F3D56"></path>
            <rect id="Rectangle" fill="#169B62" transform="translate(257.221992, 406.469090) rotate(-54.299700) translate(-257.221992, -406.469090) " x="256.881252" y="389.89778" width="1" height="33.14262"></rect>
            <rect id="Rectangle" fill="#169B62" transform="translate(253.857911, 449.991301) rotate(-56.518680) translate(-253.857911, -449.991301) " x="221.843586" y="449.650541" width="64.02865" height="1"></rect>
            <rect id="Rectangle" fill="#169B62" transform="translate(217.694684, 467.862671) rotate(-53.655940) translate(-217.694684, -467.862671) " x="217.353839" y="450.116736" width="1" height="35.49187"></rect>
            <rect id="Rectangle" fill="#169B62" transform="translate(220.848291, 423.920026) rotate(-55.162060) translate(-220.848291, -423.920026) " x="188.827891" y="423.579381" width="64.0408" height="1"></rect>
            <rect id="Rectangle" fill="#B3B3B3" transform="translate(266.656021, 402.553560) rotate(-47.455160) translate(-266.656021, -402.553560) " x="266.445891" y="379.971635" width="1" height="45.16385"></rect>
            <rect id="Rectangle" fill="#B3B3B3" transform="translate(264.637899, 402.899431) rotate(-48.561530) translate(-264.637899, -402.899431) " x="264.427554" y="379.705106" width="1" height="46.38865"></rect>
            <rect id="Rectangle" fill="#B3B3B3" transform="translate(263.129384, 403.210613) rotate(-50.187270) translate(-263.129384, -403.210613) " x="262.919019" y="379.711868" width="1" height="46.99749"></rect>
            <path d="M226.08149,449.16756 L226.08149,449.16756 C223.36443,447.277429 220.003218,446.555014 216.74949,447.161862 C213.495762,447.768709 210.620946,449.654197 208.76791,452.39669 L190.78804,479.0069 L203.78804,490.0069 L227.36433,468.45144 C230.13932,465.914298 231.609693,462.25273 231.360114,458.501015 C231.110535,454.7493 229.168101,451.314765 226.08149,449.16756 L226.08149,449.16756 Z" id="Path" fill="#A0616A"></path>
            <path d="M207.78802,487.00689 C200.48013,523.72051 182.69537,552.03399 140.78802,561.00689 C108.74784,533.35712 95.86329,497.20989 97.80965,454.48355 C98.0543153,449.115314 100.483115,444.080493 104.532364,440.547589 C108.581612,437.014686 113.899226,435.290887 119.25107,435.77626 L119.25107,435.77626 C127.398005,436.516891 134.236533,442.221651 136.426,450.10374 L152.788,509.00689 L189.7253,474.96509 L207.78802,487.00689 Z" id="Path" fill="#169B62"></path>
        </g>
    </g>
</svg>